<mxfile host="app.diagrams.net" modified="2023-10-25T12:16:42.259Z" agent="Mozilla/5.0 (Windows NT 10.0; Win64; x64) AppleWebKit/537.36 (KHTML, like Gecko) Chrome/118.0.0.0 Safari/537.36" etag="dQrqi1FBTYjXj6QM-nGu" version="22.0.8" type="device">
  <diagram id="BCR_tyhTy2Gqr0LoaNlq" name="1 oldal">
    <mxGraphModel dx="2261" dy="1959" grid="1" gridSize="10" guides="1" tooltips="1" connect="1" arrows="1" fold="1" page="1" pageScale="1" pageWidth="827" pageHeight="1169" math="0" shadow="0">
      <root>
        <mxCell id="0" />
        <mxCell id="1" parent="0" />
        <mxCell id="JhBT1m_xZQuHyDkd4cjV-4" value="Fesztivál" style="ellipse;whiteSpace=wrap;html=1;" parent="1" vertex="1">
          <mxGeometry x="340" y="-70" width="120" height="60" as="geometry" />
        </mxCell>
        <mxCell id="JhBT1m_xZQuHyDkd4cjV-5" value="Fellépő" style="ellipse;whiteSpace=wrap;html=1;" parent="1" vertex="1">
          <mxGeometry x="-590" y="200" width="120" height="60" as="geometry" />
        </mxCell>
        <mxCell id="JhBT1m_xZQuHyDkd4cjV-6" value="Tulajdonos" style="ellipse;whiteSpace=wrap;html=1;" parent="1" vertex="1">
          <mxGeometry x="20" y="200" width="120" height="60" as="geometry" />
        </mxCell>
        <mxCell id="JhBT1m_xZQuHyDkd4cjV-7" value="Résztvevő" style="ellipse;whiteSpace=wrap;html=1;" parent="1" vertex="1">
          <mxGeometry x="620" y="200" width="120" height="60" as="geometry" />
        </mxCell>
        <mxCell id="JhBT1m_xZQuHyDkd4cjV-8" value="Bár" style="ellipse;whiteSpace=wrap;html=1;" parent="1" vertex="1">
          <mxGeometry x="1360" y="200" width="120" height="60" as="geometry" />
        </mxCell>
        <mxCell id="JhBT1m_xZQuHyDkd4cjV-9" value="" style="endArrow=none;html=1;rounded=0;exitX=0.5;exitY=0;exitDx=0;exitDy=0;entryX=0.5;entryY=1;entryDx=0;entryDy=0;" parent="1" source="JhBT1m_xZQuHyDkd4cjV-5" target="JhBT1m_xZQuHyDkd4cjV-4" edge="1">
          <mxGeometry width="50" height="50" relative="1" as="geometry">
            <mxPoint x="390" y="430" as="sourcePoint" />
            <mxPoint x="440" y="380" as="targetPoint" />
          </mxGeometry>
        </mxCell>
        <mxCell id="JhBT1m_xZQuHyDkd4cjV-10" value="" style="endArrow=none;html=1;rounded=0;entryX=0.5;entryY=1;entryDx=0;entryDy=0;exitX=0.5;exitY=0;exitDx=0;exitDy=0;" parent="1" source="JhBT1m_xZQuHyDkd4cjV-6" target="JhBT1m_xZQuHyDkd4cjV-4" edge="1">
          <mxGeometry width="50" height="50" relative="1" as="geometry">
            <mxPoint x="390" y="430" as="sourcePoint" />
            <mxPoint x="440" y="380" as="targetPoint" />
          </mxGeometry>
        </mxCell>
        <mxCell id="JhBT1m_xZQuHyDkd4cjV-11" value="" style="endArrow=none;html=1;rounded=0;entryX=0.5;entryY=1;entryDx=0;entryDy=0;exitX=0.5;exitY=0;exitDx=0;exitDy=0;" parent="1" source="JhBT1m_xZQuHyDkd4cjV-7" target="JhBT1m_xZQuHyDkd4cjV-4" edge="1">
          <mxGeometry width="50" height="50" relative="1" as="geometry">
            <mxPoint x="390" y="430" as="sourcePoint" />
            <mxPoint x="440" y="380" as="targetPoint" />
          </mxGeometry>
        </mxCell>
        <mxCell id="JhBT1m_xZQuHyDkd4cjV-12" value="" style="endArrow=none;html=1;rounded=0;entryX=0.5;entryY=1;entryDx=0;entryDy=0;exitX=0.5;exitY=0;exitDx=0;exitDy=0;" parent="1" source="JhBT1m_xZQuHyDkd4cjV-8" target="JhBT1m_xZQuHyDkd4cjV-4" edge="1">
          <mxGeometry width="50" height="50" relative="1" as="geometry">
            <mxPoint x="390" y="430" as="sourcePoint" />
            <mxPoint x="440" y="380" as="targetPoint" />
          </mxGeometry>
        </mxCell>
        <mxCell id="JhBT1m_xZQuHyDkd4cjV-13" value="ital" style="ellipse;whiteSpace=wrap;html=1;" parent="1" vertex="1">
          <mxGeometry x="1370" y="320" width="120" height="60" as="geometry" />
        </mxCell>
        <mxCell id="JhBT1m_xZQuHyDkd4cjV-14" value="" style="endArrow=none;html=1;rounded=0;entryX=0.5;entryY=1;entryDx=0;entryDy=0;exitX=0.5;exitY=0;exitDx=0;exitDy=0;" parent="1" source="JhBT1m_xZQuHyDkd4cjV-13" target="JhBT1m_xZQuHyDkd4cjV-8" edge="1">
          <mxGeometry width="50" height="50" relative="1" as="geometry">
            <mxPoint x="390" y="430" as="sourcePoint" />
            <mxPoint x="440" y="380" as="targetPoint" />
          </mxGeometry>
        </mxCell>
        <mxCell id="JhBT1m_xZQuHyDkd4cjV-15" value="Nyelvtudás" style="ellipse;whiteSpace=wrap;html=1;" parent="1" vertex="1">
          <mxGeometry x="960" y="320" width="120" height="60" as="geometry" />
        </mxCell>
        <mxCell id="JhBT1m_xZQuHyDkd4cjV-16" value="" style="endArrow=none;html=1;rounded=0;entryX=0.5;entryY=1;entryDx=0;entryDy=0;exitX=0.5;exitY=0;exitDx=0;exitDy=0;" parent="1" source="JhBT1m_xZQuHyDkd4cjV-15" target="JhBT1m_xZQuHyDkd4cjV-7" edge="1">
          <mxGeometry width="50" height="50" relative="1" as="geometry">
            <mxPoint x="390" y="430" as="sourcePoint" />
            <mxPoint x="440" y="380" as="targetPoint" />
          </mxGeometry>
        </mxCell>
        <mxCell id="JhBT1m_xZQuHyDkd4cjV-17" value="név" style="ellipse;whiteSpace=wrap;html=1;" parent="1" vertex="1">
          <mxGeometry x="-650" y="320" width="120" height="60" as="geometry" />
        </mxCell>
        <mxCell id="JhBT1m_xZQuHyDkd4cjV-19" value="ország" style="ellipse;whiteSpace=wrap;html=1;" parent="1" vertex="1">
          <mxGeometry x="-520" y="320" width="120" height="60" as="geometry" />
        </mxCell>
        <mxCell id="JhBT1m_xZQuHyDkd4cjV-20" value="díj" style="ellipse;whiteSpace=wrap;html=1;" parent="1" vertex="1">
          <mxGeometry x="-390" y="320" width="120" height="60" as="geometry" />
        </mxCell>
        <mxCell id="JhBT1m_xZQuHyDkd4cjV-21" value="" style="endArrow=none;html=1;rounded=0;exitX=0.5;exitY=0;exitDx=0;exitDy=0;entryX=0.5;entryY=1;entryDx=0;entryDy=0;" parent="1" source="JhBT1m_xZQuHyDkd4cjV-81" target="JhBT1m_xZQuHyDkd4cjV-5" edge="1">
          <mxGeometry width="50" height="50" relative="1" as="geometry">
            <mxPoint x="-720" y="320" as="sourcePoint" />
            <mxPoint x="110" y="280" as="targetPoint" />
          </mxGeometry>
        </mxCell>
        <mxCell id="JhBT1m_xZQuHyDkd4cjV-22" value="" style="endArrow=none;html=1;rounded=0;exitX=0.5;exitY=0;exitDx=0;exitDy=0;entryX=0.5;entryY=1;entryDx=0;entryDy=0;" parent="1" source="JhBT1m_xZQuHyDkd4cjV-17" target="JhBT1m_xZQuHyDkd4cjV-5" edge="1">
          <mxGeometry width="50" height="50" relative="1" as="geometry">
            <mxPoint x="60" y="330" as="sourcePoint" />
            <mxPoint x="110" y="280" as="targetPoint" />
          </mxGeometry>
        </mxCell>
        <mxCell id="JhBT1m_xZQuHyDkd4cjV-23" value="" style="endArrow=none;html=1;rounded=0;exitX=0.5;exitY=0;exitDx=0;exitDy=0;entryX=0.5;entryY=1;entryDx=0;entryDy=0;" parent="1" source="JhBT1m_xZQuHyDkd4cjV-19" target="JhBT1m_xZQuHyDkd4cjV-5" edge="1">
          <mxGeometry width="50" height="50" relative="1" as="geometry">
            <mxPoint x="60" y="330" as="sourcePoint" />
            <mxPoint x="110" y="280" as="targetPoint" />
          </mxGeometry>
        </mxCell>
        <mxCell id="JhBT1m_xZQuHyDkd4cjV-24" value="" style="endArrow=none;html=1;rounded=0;exitX=0.5;exitY=0;exitDx=0;exitDy=0;entryX=0.5;entryY=1;entryDx=0;entryDy=0;" parent="1" source="JhBT1m_xZQuHyDkd4cjV-20" target="JhBT1m_xZQuHyDkd4cjV-5" edge="1">
          <mxGeometry width="50" height="50" relative="1" as="geometry">
            <mxPoint x="60" y="330" as="sourcePoint" />
            <mxPoint x="110" y="280" as="targetPoint" />
          </mxGeometry>
        </mxCell>
        <mxCell id="JhBT1m_xZQuHyDkd4cjV-26" value="név" style="ellipse;whiteSpace=wrap;html=1;" parent="1" vertex="1">
          <mxGeometry x="-110" y="320" width="120" height="60" as="geometry" />
        </mxCell>
        <mxCell id="JhBT1m_xZQuHyDkd4cjV-27" value="adószám" style="ellipse;whiteSpace=wrap;html=1;" parent="1" vertex="1">
          <mxGeometry x="20" y="320" width="120" height="60" as="geometry" />
        </mxCell>
        <mxCell id="JhBT1m_xZQuHyDkd4cjV-29" value="alapítás" style="ellipse;whiteSpace=wrap;html=1;" parent="1" vertex="1">
          <mxGeometry x="150" y="320" width="120" height="60" as="geometry" />
        </mxCell>
        <mxCell id="JhBT1m_xZQuHyDkd4cjV-30" value="bevétel" style="ellipse;whiteSpace=wrap;html=1;" parent="1" vertex="1">
          <mxGeometry x="280" y="320" width="120" height="60" as="geometry" />
        </mxCell>
        <mxCell id="JhBT1m_xZQuHyDkd4cjV-31" value="" style="endArrow=none;html=1;rounded=0;exitX=0.5;exitY=0;exitDx=0;exitDy=0;entryX=0.5;entryY=1;entryDx=0;entryDy=0;" parent="1" source="JhBT1m_xZQuHyDkd4cjV-82" target="JhBT1m_xZQuHyDkd4cjV-6" edge="1">
          <mxGeometry width="50" height="50" relative="1" as="geometry">
            <mxPoint x="-180" y="320" as="sourcePoint" />
            <mxPoint x="180" y="280" as="targetPoint" />
          </mxGeometry>
        </mxCell>
        <mxCell id="JhBT1m_xZQuHyDkd4cjV-32" value="" style="endArrow=none;html=1;rounded=0;exitX=0.5;exitY=0;exitDx=0;exitDy=0;entryX=0.5;entryY=1;entryDx=0;entryDy=0;" parent="1" source="JhBT1m_xZQuHyDkd4cjV-26" target="JhBT1m_xZQuHyDkd4cjV-6" edge="1">
          <mxGeometry width="50" height="50" relative="1" as="geometry">
            <mxPoint x="130" y="330" as="sourcePoint" />
            <mxPoint x="180" y="280" as="targetPoint" />
          </mxGeometry>
        </mxCell>
        <mxCell id="JhBT1m_xZQuHyDkd4cjV-33" value="" style="endArrow=none;html=1;rounded=0;exitX=0.5;exitY=0;exitDx=0;exitDy=0;entryX=0.5;entryY=1;entryDx=0;entryDy=0;" parent="1" source="JhBT1m_xZQuHyDkd4cjV-27" target="JhBT1m_xZQuHyDkd4cjV-6" edge="1">
          <mxGeometry width="50" height="50" relative="1" as="geometry">
            <mxPoint x="130" y="330" as="sourcePoint" />
            <mxPoint x="180" y="280" as="targetPoint" />
          </mxGeometry>
        </mxCell>
        <mxCell id="JhBT1m_xZQuHyDkd4cjV-34" value="" style="endArrow=none;html=1;rounded=0;exitX=0.5;exitY=0;exitDx=0;exitDy=0;entryX=0.5;entryY=1;entryDx=0;entryDy=0;" parent="1" source="JhBT1m_xZQuHyDkd4cjV-29" target="JhBT1m_xZQuHyDkd4cjV-6" edge="1">
          <mxGeometry width="50" height="50" relative="1" as="geometry">
            <mxPoint x="130" y="330" as="sourcePoint" />
            <mxPoint x="180" y="280" as="targetPoint" />
          </mxGeometry>
        </mxCell>
        <mxCell id="JhBT1m_xZQuHyDkd4cjV-35" value="" style="endArrow=none;html=1;rounded=0;exitX=0.5;exitY=0;exitDx=0;exitDy=0;entryX=0.5;entryY=1;entryDx=0;entryDy=0;" parent="1" source="JhBT1m_xZQuHyDkd4cjV-30" target="JhBT1m_xZQuHyDkd4cjV-6" edge="1">
          <mxGeometry width="50" height="50" relative="1" as="geometry">
            <mxPoint x="130" y="330" as="sourcePoint" />
            <mxPoint x="180" y="280" as="targetPoint" />
          </mxGeometry>
        </mxCell>
        <mxCell id="JhBT1m_xZQuHyDkd4cjV-36" value="lakcím" style="ellipse;whiteSpace=wrap;html=1;" parent="1" vertex="1">
          <mxGeometry x="420" y="320" width="120" height="60" as="geometry" />
        </mxCell>
        <mxCell id="JhBT1m_xZQuHyDkd4cjV-38" value="diákigazolvány" style="ellipse;whiteSpace=wrap;html=1;" parent="1" vertex="1">
          <mxGeometry x="830" y="320" width="120" height="60" as="geometry" />
        </mxCell>
        <mxCell id="JhBT1m_xZQuHyDkd4cjV-39" value="" style="endArrow=none;html=1;rounded=0;exitX=0.5;exitY=0;exitDx=0;exitDy=0;entryX=0.5;entryY=1;entryDx=0;entryDy=0;" parent="1" source="JhBT1m_xZQuHyDkd4cjV-36" target="JhBT1m_xZQuHyDkd4cjV-7" edge="1">
          <mxGeometry width="50" height="50" relative="1" as="geometry">
            <mxPoint x="630" y="330" as="sourcePoint" />
            <mxPoint x="680" y="280" as="targetPoint" />
          </mxGeometry>
        </mxCell>
        <mxCell id="JhBT1m_xZQuHyDkd4cjV-40" value="" style="endArrow=none;html=1;rounded=0;exitX=0.5;exitY=0;exitDx=0;exitDy=0;entryX=0.5;entryY=1;entryDx=0;entryDy=0;" parent="1" source="JhBT1m_xZQuHyDkd4cjV-83" target="JhBT1m_xZQuHyDkd4cjV-7" edge="1">
          <mxGeometry width="50" height="50" relative="1" as="geometry">
            <mxPoint x="620" y="320" as="sourcePoint" />
            <mxPoint x="680" y="280" as="targetPoint" />
          </mxGeometry>
        </mxCell>
        <mxCell id="JhBT1m_xZQuHyDkd4cjV-41" value="" style="endArrow=none;html=1;rounded=0;exitX=0.5;exitY=0;exitDx=0;exitDy=0;entryX=0.5;entryY=1;entryDx=0;entryDy=0;" parent="1" source="JhBT1m_xZQuHyDkd4cjV-38" target="JhBT1m_xZQuHyDkd4cjV-7" edge="1">
          <mxGeometry width="50" height="50" relative="1" as="geometry">
            <mxPoint x="630" y="330" as="sourcePoint" />
            <mxPoint x="680" y="280" as="targetPoint" />
          </mxGeometry>
        </mxCell>
        <mxCell id="JhBT1m_xZQuHyDkd4cjV-42" value="név" style="ellipse;whiteSpace=wrap;html=1;" parent="1" vertex="1">
          <mxGeometry x="700" y="320" width="120" height="60" as="geometry" />
        </mxCell>
        <mxCell id="JhBT1m_xZQuHyDkd4cjV-43" value="" style="endArrow=none;html=1;rounded=0;exitX=0.5;exitY=0;exitDx=0;exitDy=0;entryX=0.5;entryY=1;entryDx=0;entryDy=0;" parent="1" source="JhBT1m_xZQuHyDkd4cjV-42" target="JhBT1m_xZQuHyDkd4cjV-7" edge="1">
          <mxGeometry width="50" height="50" relative="1" as="geometry">
            <mxPoint x="820" y="330" as="sourcePoint" />
            <mxPoint x="680" y="280" as="targetPoint" />
          </mxGeometry>
        </mxCell>
        <mxCell id="JhBT1m_xZQuHyDkd4cjV-44" value="házszám" style="ellipse;whiteSpace=wrap;html=1;" parent="1" vertex="1">
          <mxGeometry x="560" y="510" width="120" height="60" as="geometry" />
        </mxCell>
        <mxCell id="JhBT1m_xZQuHyDkd4cjV-45" value="utca" style="ellipse;whiteSpace=wrap;html=1;" parent="1" vertex="1">
          <mxGeometry x="420" y="510" width="120" height="60" as="geometry" />
        </mxCell>
        <mxCell id="JhBT1m_xZQuHyDkd4cjV-46" value="település" style="ellipse;whiteSpace=wrap;html=1;" parent="1" vertex="1">
          <mxGeometry x="280" y="510" width="120" height="60" as="geometry" />
        </mxCell>
        <mxCell id="JhBT1m_xZQuHyDkd4cjV-47" value="" style="endArrow=none;html=1;rounded=0;exitX=0.5;exitY=0;exitDx=0;exitDy=0;entryX=0.5;entryY=1;entryDx=0;entryDy=0;" parent="1" source="JhBT1m_xZQuHyDkd4cjV-46" target="JhBT1m_xZQuHyDkd4cjV-36" edge="1">
          <mxGeometry width="50" height="50" relative="1" as="geometry">
            <mxPoint x="820" y="330" as="sourcePoint" />
            <mxPoint x="870" y="280" as="targetPoint" />
          </mxGeometry>
        </mxCell>
        <mxCell id="JhBT1m_xZQuHyDkd4cjV-48" value="" style="endArrow=none;html=1;rounded=0;exitX=0.5;exitY=0;exitDx=0;exitDy=0;entryX=0.5;entryY=1;entryDx=0;entryDy=0;" parent="1" source="JhBT1m_xZQuHyDkd4cjV-45" target="JhBT1m_xZQuHyDkd4cjV-36" edge="1">
          <mxGeometry width="50" height="50" relative="1" as="geometry">
            <mxPoint x="820" y="330" as="sourcePoint" />
            <mxPoint x="870" y="280" as="targetPoint" />
          </mxGeometry>
        </mxCell>
        <mxCell id="JhBT1m_xZQuHyDkd4cjV-49" value="" style="endArrow=none;html=1;rounded=0;exitX=0.5;exitY=0;exitDx=0;exitDy=0;entryX=0.5;entryY=1;entryDx=0;entryDy=0;" parent="1" source="JhBT1m_xZQuHyDkd4cjV-44" target="JhBT1m_xZQuHyDkd4cjV-36" edge="1">
          <mxGeometry width="50" height="50" relative="1" as="geometry">
            <mxPoint x="820" y="330" as="sourcePoint" />
            <mxPoint x="870" y="280" as="targetPoint" />
          </mxGeometry>
        </mxCell>
        <mxCell id="JhBT1m_xZQuHyDkd4cjV-50" value="szint" style="ellipse;whiteSpace=wrap;html=1;" parent="1" vertex="1">
          <mxGeometry x="1090" y="510" width="120" height="60" as="geometry" />
        </mxCell>
        <mxCell id="JhBT1m_xZQuHyDkd4cjV-51" value="nyelv" style="ellipse;whiteSpace=wrap;html=1;" parent="1" vertex="1">
          <mxGeometry x="960" y="510" width="120" height="60" as="geometry" />
        </mxCell>
        <mxCell id="JhBT1m_xZQuHyDkd4cjV-53" value="" style="endArrow=none;html=1;rounded=0;exitX=0.5;exitY=0;exitDx=0;exitDy=0;entryX=0.5;entryY=1;entryDx=0;entryDy=0;" parent="1" source="JhBT1m_xZQuHyDkd4cjV-85" target="JhBT1m_xZQuHyDkd4cjV-15" edge="1">
          <mxGeometry width="50" height="50" relative="1" as="geometry">
            <mxPoint x="880" y="440" as="sourcePoint" />
            <mxPoint x="880" y="400" as="targetPoint" />
          </mxGeometry>
        </mxCell>
        <mxCell id="JhBT1m_xZQuHyDkd4cjV-54" value="" style="endArrow=none;html=1;rounded=0;exitX=0.5;exitY=0;exitDx=0;exitDy=0;entryX=0.5;entryY=1;entryDx=0;entryDy=0;" parent="1" source="JhBT1m_xZQuHyDkd4cjV-51" target="JhBT1m_xZQuHyDkd4cjV-15" edge="1">
          <mxGeometry width="50" height="50" relative="1" as="geometry">
            <mxPoint x="820" y="330" as="sourcePoint" />
            <mxPoint x="870" y="280" as="targetPoint" />
          </mxGeometry>
        </mxCell>
        <mxCell id="JhBT1m_xZQuHyDkd4cjV-55" value="" style="endArrow=none;html=1;rounded=0;exitX=0.5;exitY=0;exitDx=0;exitDy=0;entryX=0.5;entryY=1;entryDx=0;entryDy=0;" parent="1" source="JhBT1m_xZQuHyDkd4cjV-50" target="JhBT1m_xZQuHyDkd4cjV-15" edge="1">
          <mxGeometry width="50" height="50" relative="1" as="geometry">
            <mxPoint x="820" y="330" as="sourcePoint" />
            <mxPoint x="870" y="280" as="targetPoint" />
          </mxGeometry>
        </mxCell>
        <mxCell id="JhBT1m_xZQuHyDkd4cjV-56" value="Alkalmazott" style="ellipse;whiteSpace=wrap;html=1;" parent="1" vertex="1">
          <mxGeometry x="1630" y="320" width="120" height="60" as="geometry" />
        </mxCell>
        <mxCell id="JhBT1m_xZQuHyDkd4cjV-57" value="cég" style="ellipse;whiteSpace=wrap;html=1;" parent="1" vertex="1">
          <mxGeometry x="1500" y="320" width="120" height="60" as="geometry" />
        </mxCell>
        <mxCell id="JhBT1m_xZQuHyDkd4cjV-58" value="név" style="ellipse;whiteSpace=wrap;html=1;" parent="1" vertex="1">
          <mxGeometry x="1240" y="320" width="120" height="60" as="geometry" />
        </mxCell>
        <mxCell id="JhBT1m_xZQuHyDkd4cjV-60" value="" style="endArrow=none;html=1;rounded=0;exitX=0.5;exitY=0;exitDx=0;exitDy=0;entryX=0.5;entryY=1;entryDx=0;entryDy=0;" parent="1" source="JhBT1m_xZQuHyDkd4cjV-84" target="JhBT1m_xZQuHyDkd4cjV-8" edge="1">
          <mxGeometry width="50" height="50" relative="1" as="geometry">
            <mxPoint x="1160" y="320" as="sourcePoint" />
            <mxPoint x="1420" y="280" as="targetPoint" />
          </mxGeometry>
        </mxCell>
        <mxCell id="JhBT1m_xZQuHyDkd4cjV-61" value="" style="endArrow=none;html=1;rounded=0;exitX=0.5;exitY=0;exitDx=0;exitDy=0;entryX=0.5;entryY=1;entryDx=0;entryDy=0;" parent="1" source="JhBT1m_xZQuHyDkd4cjV-58" target="JhBT1m_xZQuHyDkd4cjV-8" edge="1">
          <mxGeometry width="50" height="50" relative="1" as="geometry">
            <mxPoint x="1180" y="330" as="sourcePoint" />
            <mxPoint x="1420" y="280" as="targetPoint" />
          </mxGeometry>
        </mxCell>
        <mxCell id="JhBT1m_xZQuHyDkd4cjV-62" value="" style="endArrow=none;html=1;rounded=0;exitX=0.5;exitY=0;exitDx=0;exitDy=0;entryX=0.5;entryY=1;entryDx=0;entryDy=0;" parent="1" source="JhBT1m_xZQuHyDkd4cjV-57" target="JhBT1m_xZQuHyDkd4cjV-8" edge="1">
          <mxGeometry width="50" height="50" relative="1" as="geometry">
            <mxPoint x="1180" y="330" as="sourcePoint" />
            <mxPoint x="1230" y="280" as="targetPoint" />
          </mxGeometry>
        </mxCell>
        <mxCell id="JhBT1m_xZQuHyDkd4cjV-63" value="" style="endArrow=none;html=1;rounded=0;exitX=0.5;exitY=0;exitDx=0;exitDy=0;" parent="1" source="JhBT1m_xZQuHyDkd4cjV-56" edge="1">
          <mxGeometry width="50" height="50" relative="1" as="geometry">
            <mxPoint x="1180" y="330" as="sourcePoint" />
            <mxPoint x="1420" y="260" as="targetPoint" />
          </mxGeometry>
        </mxCell>
        <mxCell id="JhBT1m_xZQuHyDkd4cjV-64" value="fizetés" style="ellipse;whiteSpace=wrap;html=1;" parent="1" vertex="1">
          <mxGeometry x="1875" y="513.75" width="120" height="60" as="geometry" />
        </mxCell>
        <mxCell id="JhBT1m_xZQuHyDkd4cjV-66" value="műszak" style="ellipse;whiteSpace=wrap;html=1;" parent="1" vertex="1">
          <mxGeometry x="1735" y="510" width="120" height="60" as="geometry" />
        </mxCell>
        <mxCell id="JhBT1m_xZQuHyDkd4cjV-67" value="név" style="ellipse;whiteSpace=wrap;html=1;" parent="1" vertex="1">
          <mxGeometry x="1600" y="510" width="120" height="60" as="geometry" />
        </mxCell>
        <mxCell id="JhBT1m_xZQuHyDkd4cjV-68" value="" style="endArrow=none;html=1;rounded=0;exitX=0.5;exitY=0;exitDx=0;exitDy=0;entryX=0.5;entryY=1;entryDx=0;entryDy=0;" parent="1" source="JhBT1m_xZQuHyDkd4cjV-86" target="JhBT1m_xZQuHyDkd4cjV-56" edge="1">
          <mxGeometry width="50" height="50" relative="1" as="geometry">
            <mxPoint x="1490" y="440" as="sourcePoint" />
            <mxPoint x="1340" y="280" as="targetPoint" />
          </mxGeometry>
        </mxCell>
        <mxCell id="JhBT1m_xZQuHyDkd4cjV-69" value="" style="endArrow=none;html=1;rounded=0;exitX=0.5;exitY=0;exitDx=0;exitDy=0;entryX=0.5;entryY=1;entryDx=0;entryDy=0;" parent="1" source="JhBT1m_xZQuHyDkd4cjV-67" target="JhBT1m_xZQuHyDkd4cjV-56" edge="1">
          <mxGeometry width="50" height="50" relative="1" as="geometry">
            <mxPoint x="1290" y="330" as="sourcePoint" />
            <mxPoint x="1340" y="280" as="targetPoint" />
          </mxGeometry>
        </mxCell>
        <mxCell id="JhBT1m_xZQuHyDkd4cjV-70" value="" style="endArrow=none;html=1;rounded=0;exitX=0.5;exitY=0;exitDx=0;exitDy=0;entryX=0.5;entryY=1;entryDx=0;entryDy=0;" parent="1" source="JhBT1m_xZQuHyDkd4cjV-66" target="JhBT1m_xZQuHyDkd4cjV-56" edge="1">
          <mxGeometry width="50" height="50" relative="1" as="geometry">
            <mxPoint x="1290" y="330" as="sourcePoint" />
            <mxPoint x="1340" y="280" as="targetPoint" />
          </mxGeometry>
        </mxCell>
        <mxCell id="JhBT1m_xZQuHyDkd4cjV-71" value="" style="endArrow=none;html=1;rounded=0;exitX=0.5;exitY=0;exitDx=0;exitDy=0;entryX=0.5;entryY=1;entryDx=0;entryDy=0;" parent="1" source="JhBT1m_xZQuHyDkd4cjV-64" target="JhBT1m_xZQuHyDkd4cjV-56" edge="1">
          <mxGeometry width="50" height="50" relative="1" as="geometry">
            <mxPoint x="1290" y="330" as="sourcePoint" />
            <mxPoint x="1340" y="280" as="targetPoint" />
          </mxGeometry>
        </mxCell>
        <mxCell id="JhBT1m_xZQuHyDkd4cjV-73" value="év" style="ellipse;whiteSpace=wrap;html=1;" parent="1" vertex="1">
          <mxGeometry x="990" y="150" width="120" height="60" as="geometry" />
        </mxCell>
        <mxCell id="JhBT1m_xZQuHyDkd4cjV-74" value="helyszín" style="ellipse;whiteSpace=wrap;html=1;" parent="1" vertex="1">
          <mxGeometry x="420" y="150" width="120" height="60" as="geometry" />
        </mxCell>
        <mxCell id="JhBT1m_xZQuHyDkd4cjV-75" value="név" style="ellipse;whiteSpace=wrap;html=1;" parent="1" vertex="1">
          <mxGeometry x="220" y="150" width="120" height="60" as="geometry" />
        </mxCell>
        <mxCell id="JhBT1m_xZQuHyDkd4cjV-76" value="" style="endArrow=none;html=1;rounded=0;exitX=0.5;exitY=0;exitDx=0;exitDy=0;entryX=0.5;entryY=1;entryDx=0;entryDy=0;" parent="1" source="JhBT1m_xZQuHyDkd4cjV-80" target="JhBT1m_xZQuHyDkd4cjV-4" edge="1">
          <mxGeometry width="50" height="50" relative="1" as="geometry">
            <mxPoint x="-220" y="200" as="sourcePoint" />
            <mxPoint x="430" y="180" as="targetPoint" />
          </mxGeometry>
        </mxCell>
        <mxCell id="JhBT1m_xZQuHyDkd4cjV-77" value="" style="endArrow=none;html=1;rounded=0;exitX=0.5;exitY=0;exitDx=0;exitDy=0;entryX=0.5;entryY=1;entryDx=0;entryDy=0;" parent="1" source="JhBT1m_xZQuHyDkd4cjV-75" target="JhBT1m_xZQuHyDkd4cjV-4" edge="1">
          <mxGeometry width="50" height="50" relative="1" as="geometry">
            <mxPoint x="380" y="230" as="sourcePoint" />
            <mxPoint x="400" y="90" as="targetPoint" />
          </mxGeometry>
        </mxCell>
        <mxCell id="JhBT1m_xZQuHyDkd4cjV-78" value="" style="endArrow=none;html=1;rounded=0;exitX=0.5;exitY=0;exitDx=0;exitDy=0;entryX=0.5;entryY=1;entryDx=0;entryDy=0;" parent="1" source="JhBT1m_xZQuHyDkd4cjV-74" target="JhBT1m_xZQuHyDkd4cjV-4" edge="1">
          <mxGeometry width="50" height="50" relative="1" as="geometry">
            <mxPoint x="380" y="230" as="sourcePoint" />
            <mxPoint x="430" y="180" as="targetPoint" />
          </mxGeometry>
        </mxCell>
        <mxCell id="JhBT1m_xZQuHyDkd4cjV-79" value="" style="endArrow=none;html=1;rounded=0;exitX=0.5;exitY=0;exitDx=0;exitDy=0;entryX=0.5;entryY=1;entryDx=0;entryDy=0;" parent="1" source="JhBT1m_xZQuHyDkd4cjV-73" target="JhBT1m_xZQuHyDkd4cjV-4" edge="1">
          <mxGeometry width="50" height="50" relative="1" as="geometry">
            <mxPoint x="380" y="230" as="sourcePoint" />
            <mxPoint x="400" y="90" as="targetPoint" />
          </mxGeometry>
        </mxCell>
        <mxCell id="JhBT1m_xZQuHyDkd4cjV-80" value="FESZ_ID" style="rhombus;whiteSpace=wrap;html=1;" parent="1" vertex="1">
          <mxGeometry x="-290" y="150" width="140" height="60" as="geometry" />
        </mxCell>
        <mxCell id="JhBT1m_xZQuHyDkd4cjV-81" value="FEL_ID" style="rhombus;whiteSpace=wrap;html=1;" parent="1" vertex="1">
          <mxGeometry x="-780" y="320" width="120" height="60" as="geometry" />
        </mxCell>
        <mxCell id="JhBT1m_xZQuHyDkd4cjV-82" value="T_ID" style="rhombus;whiteSpace=wrap;html=1;" parent="1" vertex="1">
          <mxGeometry x="-260" y="320" width="140" height="60" as="geometry" />
        </mxCell>
        <mxCell id="JhBT1m_xZQuHyDkd4cjV-83" value="R_ID" style="rhombus;whiteSpace=wrap;html=1;" parent="1" vertex="1">
          <mxGeometry x="550" y="320" width="140" height="60" as="geometry" />
        </mxCell>
        <mxCell id="JhBT1m_xZQuHyDkd4cjV-84" value="B_ID" style="rhombus;whiteSpace=wrap;html=1;" parent="1" vertex="1">
          <mxGeometry x="1090" y="320" width="140" height="60" as="geometry" />
        </mxCell>
        <mxCell id="JhBT1m_xZQuHyDkd4cjV-85" value="NY_ID" style="rhombus;whiteSpace=wrap;html=1;" parent="1" vertex="1">
          <mxGeometry x="810" y="510" width="140" height="60" as="geometry" />
        </mxCell>
        <mxCell id="JhBT1m_xZQuHyDkd4cjV-86" value="A_ID" style="rhombus;whiteSpace=wrap;html=1;" parent="1" vertex="1">
          <mxGeometry x="1435" y="513.75" width="140" height="60" as="geometry" />
        </mxCell>
        <mxCell id="JhBT1m_xZQuHyDkd4cjV-87" value="" style="ellipse;whiteSpace=wrap;html=1;fillColor=none;" parent="1" vertex="1">
          <mxGeometry x="1740" y="513.75" width="110" height="52.5" as="geometry" />
        </mxCell>
        <mxCell id="JhBT1m_xZQuHyDkd4cjV-88" value="" style="ellipse;whiteSpace=wrap;html=1;fillColor=none;" parent="1" vertex="1">
          <mxGeometry x="1375" y="323.75" width="110" height="52.5" as="geometry" />
        </mxCell>
        <mxCell id="JhBT1m_xZQuHyDkd4cjV-90" value="" style="rounded=0;whiteSpace=wrap;html=1;" parent="1" vertex="1">
          <mxGeometry x="-235" y="220" width="30" height="60" as="geometry" />
        </mxCell>
        <mxCell id="JhBT1m_xZQuHyDkd4cjV-91" value="" style="endArrow=none;html=1;rounded=0;exitX=0.5;exitY=0;exitDx=0;exitDy=0;entryX=0.5;entryY=1;entryDx=0;entryDy=0;" parent="1" source="JhBT1m_xZQuHyDkd4cjV-90" target="JhBT1m_xZQuHyDkd4cjV-80" edge="1">
          <mxGeometry width="50" height="50" relative="1" as="geometry">
            <mxPoint x="150" y="330" as="sourcePoint" />
            <mxPoint x="200" y="280" as="targetPoint" />
          </mxGeometry>
        </mxCell>
        <mxCell id="JhBT1m_xZQuHyDkd4cjV-92" value="" style="rounded=0;whiteSpace=wrap;html=1;" parent="1" vertex="1">
          <mxGeometry x="265" y="220" width="30" height="60" as="geometry" />
        </mxCell>
        <mxCell id="JhBT1m_xZQuHyDkd4cjV-93" value="" style="rounded=0;whiteSpace=wrap;html=1;" parent="1" vertex="1">
          <mxGeometry x="465" y="220" width="30" height="60" as="geometry" />
        </mxCell>
        <mxCell id="JhBT1m_xZQuHyDkd4cjV-94" value="" style="rounded=0;whiteSpace=wrap;html=1;" parent="1" vertex="1">
          <mxGeometry x="1035" y="220" width="30" height="60" as="geometry" />
        </mxCell>
        <mxCell id="JhBT1m_xZQuHyDkd4cjV-95" value="" style="endArrow=none;html=1;rounded=0;entryX=0.5;entryY=1;entryDx=0;entryDy=0;exitX=0.5;exitY=0;exitDx=0;exitDy=0;" parent="1" source="JhBT1m_xZQuHyDkd4cjV-92" target="JhBT1m_xZQuHyDkd4cjV-75" edge="1">
          <mxGeometry width="50" height="50" relative="1" as="geometry">
            <mxPoint x="600" y="330" as="sourcePoint" />
            <mxPoint x="650" y="280" as="targetPoint" />
          </mxGeometry>
        </mxCell>
        <mxCell id="JhBT1m_xZQuHyDkd4cjV-96" value="" style="endArrow=none;html=1;rounded=0;entryX=0.5;entryY=1;entryDx=0;entryDy=0;exitX=0.5;exitY=0;exitDx=0;exitDy=0;" parent="1" source="JhBT1m_xZQuHyDkd4cjV-93" target="JhBT1m_xZQuHyDkd4cjV-74" edge="1">
          <mxGeometry width="50" height="50" relative="1" as="geometry">
            <mxPoint x="600" y="330" as="sourcePoint" />
            <mxPoint x="650" y="280" as="targetPoint" />
          </mxGeometry>
        </mxCell>
        <mxCell id="JhBT1m_xZQuHyDkd4cjV-97" value="" style="endArrow=none;html=1;rounded=0;entryX=0.5;entryY=1;entryDx=0;entryDy=0;exitX=0.5;exitY=0;exitDx=0;exitDy=0;" parent="1" source="JhBT1m_xZQuHyDkd4cjV-94" target="JhBT1m_xZQuHyDkd4cjV-73" edge="1">
          <mxGeometry width="50" height="50" relative="1" as="geometry">
            <mxPoint x="1020" y="330" as="sourcePoint" />
            <mxPoint x="1070" y="280" as="targetPoint" />
          </mxGeometry>
        </mxCell>
        <mxCell id="JhBT1m_xZQuHyDkd4cjV-98" value="" style="rounded=0;whiteSpace=wrap;html=1;" parent="1" vertex="1">
          <mxGeometry x="-345" y="400" width="30" height="60" as="geometry" />
        </mxCell>
        <mxCell id="JhBT1m_xZQuHyDkd4cjV-99" value="" style="rounded=0;whiteSpace=wrap;html=1;" parent="1" vertex="1">
          <mxGeometry x="-475" y="400" width="30" height="60" as="geometry" />
        </mxCell>
        <mxCell id="JhBT1m_xZQuHyDkd4cjV-100" value="" style="rounded=0;whiteSpace=wrap;html=1;" parent="1" vertex="1">
          <mxGeometry x="-605" y="400" width="30" height="60" as="geometry" />
        </mxCell>
        <mxCell id="JhBT1m_xZQuHyDkd4cjV-101" value="" style="rounded=0;whiteSpace=wrap;html=1;" parent="1" vertex="1">
          <mxGeometry x="-735" y="400" width="30" height="60" as="geometry" />
        </mxCell>
        <mxCell id="JhBT1m_xZQuHyDkd4cjV-102" value="" style="rounded=0;whiteSpace=wrap;html=1;" parent="1" vertex="1">
          <mxGeometry x="325" y="400" width="30" height="60" as="geometry" />
        </mxCell>
        <mxCell id="JhBT1m_xZQuHyDkd4cjV-103" value="" style="rounded=0;whiteSpace=wrap;html=1;" parent="1" vertex="1">
          <mxGeometry x="195" y="400" width="30" height="60" as="geometry" />
        </mxCell>
        <mxCell id="JhBT1m_xZQuHyDkd4cjV-104" value="" style="rounded=0;whiteSpace=wrap;html=1;" parent="1" vertex="1">
          <mxGeometry x="65" y="400" width="30" height="60" as="geometry" />
        </mxCell>
        <mxCell id="JhBT1m_xZQuHyDkd4cjV-105" value="" style="rounded=0;whiteSpace=wrap;html=1;" parent="1" vertex="1">
          <mxGeometry x="-65" y="400" width="30" height="60" as="geometry" />
        </mxCell>
        <mxCell id="JhBT1m_xZQuHyDkd4cjV-106" value="" style="rounded=0;whiteSpace=wrap;html=1;" parent="1" vertex="1">
          <mxGeometry x="-205" y="400" width="30" height="60" as="geometry" />
        </mxCell>
        <mxCell id="JhBT1m_xZQuHyDkd4cjV-107" value="" style="endArrow=none;html=1;rounded=0;exitX=0.5;exitY=0;exitDx=0;exitDy=0;entryX=0.5;entryY=1;entryDx=0;entryDy=0;" parent="1" source="JhBT1m_xZQuHyDkd4cjV-105" target="JhBT1m_xZQuHyDkd4cjV-26" edge="1">
          <mxGeometry width="50" height="50" relative="1" as="geometry">
            <mxPoint x="120" y="330" as="sourcePoint" />
            <mxPoint x="170" y="280" as="targetPoint" />
          </mxGeometry>
        </mxCell>
        <mxCell id="JhBT1m_xZQuHyDkd4cjV-108" value="" style="endArrow=none;html=1;rounded=0;exitX=0.5;exitY=0;exitDx=0;exitDy=0;entryX=0.5;entryY=1;entryDx=0;entryDy=0;" parent="1" source="JhBT1m_xZQuHyDkd4cjV-106" target="JhBT1m_xZQuHyDkd4cjV-82" edge="1">
          <mxGeometry width="50" height="50" relative="1" as="geometry">
            <mxPoint x="120" y="330" as="sourcePoint" />
            <mxPoint x="170" y="280" as="targetPoint" />
          </mxGeometry>
        </mxCell>
        <mxCell id="JhBT1m_xZQuHyDkd4cjV-109" value="" style="endArrow=none;html=1;rounded=0;exitX=0.5;exitY=0;exitDx=0;exitDy=0;entryX=0.5;entryY=1;entryDx=0;entryDy=0;" parent="1" source="JhBT1m_xZQuHyDkd4cjV-104" target="JhBT1m_xZQuHyDkd4cjV-27" edge="1">
          <mxGeometry width="50" height="50" relative="1" as="geometry">
            <mxPoint x="120" y="330" as="sourcePoint" />
            <mxPoint x="170" y="280" as="targetPoint" />
          </mxGeometry>
        </mxCell>
        <mxCell id="JhBT1m_xZQuHyDkd4cjV-110" value="" style="endArrow=none;html=1;rounded=0;exitX=0.5;exitY=0;exitDx=0;exitDy=0;entryX=0.5;entryY=1;entryDx=0;entryDy=0;" parent="1" source="JhBT1m_xZQuHyDkd4cjV-103" target="JhBT1m_xZQuHyDkd4cjV-29" edge="1">
          <mxGeometry width="50" height="50" relative="1" as="geometry">
            <mxPoint x="120" y="330" as="sourcePoint" />
            <mxPoint x="170" y="280" as="targetPoint" />
          </mxGeometry>
        </mxCell>
        <mxCell id="JhBT1m_xZQuHyDkd4cjV-111" value="" style="endArrow=none;html=1;rounded=0;exitX=0.5;exitY=0;exitDx=0;exitDy=0;entryX=0.5;entryY=1;entryDx=0;entryDy=0;" parent="1" source="JhBT1m_xZQuHyDkd4cjV-102" target="JhBT1m_xZQuHyDkd4cjV-30" edge="1">
          <mxGeometry width="50" height="50" relative="1" as="geometry">
            <mxPoint x="120" y="330" as="sourcePoint" />
            <mxPoint x="170" y="280" as="targetPoint" />
          </mxGeometry>
        </mxCell>
        <mxCell id="JhBT1m_xZQuHyDkd4cjV-112" value="" style="endArrow=none;html=1;rounded=0;exitX=0.5;exitY=0;exitDx=0;exitDy=0;entryX=0.5;entryY=1;entryDx=0;entryDy=0;" parent="1" source="JhBT1m_xZQuHyDkd4cjV-101" target="JhBT1m_xZQuHyDkd4cjV-81" edge="1">
          <mxGeometry width="50" height="50" relative="1" as="geometry">
            <mxPoint x="-320" y="330" as="sourcePoint" />
            <mxPoint x="-270" y="280" as="targetPoint" />
          </mxGeometry>
        </mxCell>
        <mxCell id="JhBT1m_xZQuHyDkd4cjV-113" value="" style="endArrow=none;html=1;rounded=0;exitX=0.5;exitY=0;exitDx=0;exitDy=0;entryX=0.5;entryY=1;entryDx=0;entryDy=0;" parent="1" source="JhBT1m_xZQuHyDkd4cjV-100" target="JhBT1m_xZQuHyDkd4cjV-17" edge="1">
          <mxGeometry width="50" height="50" relative="1" as="geometry">
            <mxPoint x="-320" y="330" as="sourcePoint" />
            <mxPoint x="-270" y="280" as="targetPoint" />
          </mxGeometry>
        </mxCell>
        <mxCell id="JhBT1m_xZQuHyDkd4cjV-114" value="" style="endArrow=none;html=1;rounded=0;exitX=0.5;exitY=0;exitDx=0;exitDy=0;entryX=0.5;entryY=1;entryDx=0;entryDy=0;" parent="1" source="JhBT1m_xZQuHyDkd4cjV-99" target="JhBT1m_xZQuHyDkd4cjV-19" edge="1">
          <mxGeometry width="50" height="50" relative="1" as="geometry">
            <mxPoint x="-320" y="330" as="sourcePoint" />
            <mxPoint x="-270" y="280" as="targetPoint" />
          </mxGeometry>
        </mxCell>
        <mxCell id="JhBT1m_xZQuHyDkd4cjV-115" value="" style="endArrow=none;html=1;rounded=0;exitX=0.5;exitY=0;exitDx=0;exitDy=0;entryX=0.5;entryY=1;entryDx=0;entryDy=0;" parent="1" source="JhBT1m_xZQuHyDkd4cjV-98" target="JhBT1m_xZQuHyDkd4cjV-20" edge="1">
          <mxGeometry width="50" height="50" relative="1" as="geometry">
            <mxPoint x="-320" y="330" as="sourcePoint" />
            <mxPoint x="-270" y="280" as="targetPoint" />
          </mxGeometry>
        </mxCell>
        <mxCell id="wkrOXO2FNry9XR1vR1SU-1" value="" style="rounded=0;whiteSpace=wrap;html=1;" vertex="1" parent="1">
          <mxGeometry x="745" y="400" width="30" height="60" as="geometry" />
        </mxCell>
        <mxCell id="wkrOXO2FNry9XR1vR1SU-2" value="" style="endArrow=none;html=1;rounded=0;exitX=0.5;exitY=0;exitDx=0;exitDy=0;entryX=0.5;entryY=1;entryDx=0;entryDy=0;" edge="1" parent="1" source="wkrOXO2FNry9XR1vR1SU-1" target="JhBT1m_xZQuHyDkd4cjV-42">
          <mxGeometry width="50" height="50" relative="1" as="geometry">
            <mxPoint x="130" y="340" as="sourcePoint" />
            <mxPoint x="90" y="390" as="targetPoint" />
          </mxGeometry>
        </mxCell>
        <mxCell id="wkrOXO2FNry9XR1vR1SU-3" value="" style="rounded=0;whiteSpace=wrap;html=1;" vertex="1" parent="1">
          <mxGeometry x="605" y="400" width="30" height="60" as="geometry" />
        </mxCell>
        <mxCell id="wkrOXO2FNry9XR1vR1SU-4" value="" style="endArrow=none;html=1;rounded=0;exitX=0.5;exitY=0;exitDx=0;exitDy=0;entryX=0.5;entryY=1;entryDx=0;entryDy=0;" edge="1" parent="1" source="wkrOXO2FNry9XR1vR1SU-3" target="JhBT1m_xZQuHyDkd4cjV-83">
          <mxGeometry width="50" height="50" relative="1" as="geometry">
            <mxPoint x="140" y="350" as="sourcePoint" />
            <mxPoint x="100" y="400" as="targetPoint" />
          </mxGeometry>
        </mxCell>
        <mxCell id="wkrOXO2FNry9XR1vR1SU-5" value="" style="rounded=0;whiteSpace=wrap;html=1;" vertex="1" parent="1">
          <mxGeometry x="605" y="590" width="30" height="60" as="geometry" />
        </mxCell>
        <mxCell id="wkrOXO2FNry9XR1vR1SU-6" value="" style="endArrow=none;html=1;rounded=0;exitX=0.5;exitY=0;exitDx=0;exitDy=0;entryX=0.5;entryY=1;entryDx=0;entryDy=0;" edge="1" parent="1" source="wkrOXO2FNry9XR1vR1SU-5" target="JhBT1m_xZQuHyDkd4cjV-44">
          <mxGeometry width="50" height="50" relative="1" as="geometry">
            <mxPoint x="150" y="360" as="sourcePoint" />
            <mxPoint x="110" y="410" as="targetPoint" />
          </mxGeometry>
        </mxCell>
        <mxCell id="wkrOXO2FNry9XR1vR1SU-7" value="" style="rounded=0;whiteSpace=wrap;html=1;" vertex="1" parent="1">
          <mxGeometry x="465" y="590" width="30" height="60" as="geometry" />
        </mxCell>
        <mxCell id="wkrOXO2FNry9XR1vR1SU-8" value="" style="endArrow=none;html=1;rounded=0;exitX=0.5;exitY=0;exitDx=0;exitDy=0;entryX=0.5;entryY=1;entryDx=0;entryDy=0;" edge="1" parent="1" source="wkrOXO2FNry9XR1vR1SU-7" target="JhBT1m_xZQuHyDkd4cjV-45">
          <mxGeometry width="50" height="50" relative="1" as="geometry">
            <mxPoint x="160" y="370" as="sourcePoint" />
            <mxPoint x="120" y="420" as="targetPoint" />
          </mxGeometry>
        </mxCell>
        <mxCell id="wkrOXO2FNry9XR1vR1SU-9" value="" style="rounded=0;whiteSpace=wrap;html=1;" vertex="1" parent="1">
          <mxGeometry x="325" y="590" width="30" height="60" as="geometry" />
        </mxCell>
        <mxCell id="wkrOXO2FNry9XR1vR1SU-10" value="" style="endArrow=none;html=1;rounded=0;exitX=0.5;exitY=0;exitDx=0;exitDy=0;entryX=0.5;entryY=1;entryDx=0;entryDy=0;" edge="1" parent="1" source="wkrOXO2FNry9XR1vR1SU-9" target="JhBT1m_xZQuHyDkd4cjV-46">
          <mxGeometry width="50" height="50" relative="1" as="geometry">
            <mxPoint x="170" y="380" as="sourcePoint" />
            <mxPoint x="130" y="430" as="targetPoint" />
          </mxGeometry>
        </mxCell>
        <mxCell id="wkrOXO2FNry9XR1vR1SU-11" value="" style="rounded=0;whiteSpace=wrap;html=1;" vertex="1" parent="1">
          <mxGeometry x="875" y="400" width="30" height="60" as="geometry" />
        </mxCell>
        <mxCell id="wkrOXO2FNry9XR1vR1SU-12" value="" style="endArrow=none;html=1;rounded=0;exitX=0.5;exitY=0;exitDx=0;exitDy=0;entryX=0.5;entryY=1;entryDx=0;entryDy=0;" edge="1" parent="1" source="wkrOXO2FNry9XR1vR1SU-11" target="JhBT1m_xZQuHyDkd4cjV-38">
          <mxGeometry width="50" height="50" relative="1" as="geometry">
            <mxPoint x="180" y="390" as="sourcePoint" />
            <mxPoint x="140" y="440" as="targetPoint" />
          </mxGeometry>
        </mxCell>
        <mxCell id="wkrOXO2FNry9XR1vR1SU-13" value="" style="rounded=0;whiteSpace=wrap;html=1;" vertex="1" parent="1">
          <mxGeometry x="1135" y="590" width="30" height="60" as="geometry" />
        </mxCell>
        <mxCell id="wkrOXO2FNry9XR1vR1SU-14" value="" style="endArrow=none;html=1;rounded=0;exitX=0.5;exitY=0;exitDx=0;exitDy=0;entryX=0.5;entryY=1;entryDx=0;entryDy=0;" edge="1" parent="1" source="wkrOXO2FNry9XR1vR1SU-13" target="JhBT1m_xZQuHyDkd4cjV-50">
          <mxGeometry width="50" height="50" relative="1" as="geometry">
            <mxPoint x="190" y="400" as="sourcePoint" />
            <mxPoint x="150" y="450" as="targetPoint" />
          </mxGeometry>
        </mxCell>
        <mxCell id="wkrOXO2FNry9XR1vR1SU-15" value="" style="rounded=0;whiteSpace=wrap;html=1;" vertex="1" parent="1">
          <mxGeometry x="1005" y="590" width="30" height="60" as="geometry" />
        </mxCell>
        <mxCell id="wkrOXO2FNry9XR1vR1SU-16" value="" style="endArrow=none;html=1;rounded=0;exitX=0.5;exitY=0;exitDx=0;exitDy=0;entryX=0.5;entryY=1;entryDx=0;entryDy=0;" edge="1" parent="1" source="wkrOXO2FNry9XR1vR1SU-15" target="JhBT1m_xZQuHyDkd4cjV-51">
          <mxGeometry width="50" height="50" relative="1" as="geometry">
            <mxPoint x="200" y="410" as="sourcePoint" />
            <mxPoint x="160" y="460" as="targetPoint" />
          </mxGeometry>
        </mxCell>
        <mxCell id="wkrOXO2FNry9XR1vR1SU-17" value="" style="rounded=0;whiteSpace=wrap;html=1;" vertex="1" parent="1">
          <mxGeometry x="865" y="590" width="30" height="60" as="geometry" />
        </mxCell>
        <mxCell id="wkrOXO2FNry9XR1vR1SU-18" value="" style="endArrow=none;html=1;rounded=0;exitX=0.5;exitY=0;exitDx=0;exitDy=0;entryX=0.5;entryY=1;entryDx=0;entryDy=0;" edge="1" parent="1" source="wkrOXO2FNry9XR1vR1SU-17" target="JhBT1m_xZQuHyDkd4cjV-85">
          <mxGeometry width="50" height="50" relative="1" as="geometry">
            <mxPoint x="920" y="446.25" as="sourcePoint" />
            <mxPoint x="880" y="496.25" as="targetPoint" />
          </mxGeometry>
        </mxCell>
        <mxCell id="wkrOXO2FNry9XR1vR1SU-19" value="" style="rounded=0;whiteSpace=wrap;html=1;" vertex="1" parent="1">
          <mxGeometry x="1780" y="590" width="30" height="60" as="geometry" />
        </mxCell>
        <mxCell id="wkrOXO2FNry9XR1vR1SU-20" value="" style="endArrow=none;html=1;rounded=0;exitX=0.5;exitY=0;exitDx=0;exitDy=0;entryX=0.5;entryY=1;entryDx=0;entryDy=0;" edge="1" parent="1" source="wkrOXO2FNry9XR1vR1SU-19" target="JhBT1m_xZQuHyDkd4cjV-87">
          <mxGeometry width="50" height="50" relative="1" as="geometry">
            <mxPoint x="220" y="430" as="sourcePoint" />
            <mxPoint x="180" y="480" as="targetPoint" />
          </mxGeometry>
        </mxCell>
        <mxCell id="wkrOXO2FNry9XR1vR1SU-21" value="" style="rounded=0;whiteSpace=wrap;html=1;" vertex="1" parent="1">
          <mxGeometry x="1645" y="590" width="30" height="60" as="geometry" />
        </mxCell>
        <mxCell id="wkrOXO2FNry9XR1vR1SU-22" value="" style="endArrow=none;html=1;rounded=0;exitX=0.5;exitY=0;exitDx=0;exitDy=0;entryX=0.5;entryY=1;entryDx=0;entryDy=0;" edge="1" parent="1" source="wkrOXO2FNry9XR1vR1SU-21" target="JhBT1m_xZQuHyDkd4cjV-67">
          <mxGeometry width="50" height="50" relative="1" as="geometry">
            <mxPoint x="230" y="440" as="sourcePoint" />
            <mxPoint x="190" y="490" as="targetPoint" />
          </mxGeometry>
        </mxCell>
        <mxCell id="wkrOXO2FNry9XR1vR1SU-23" value="" style="rounded=0;whiteSpace=wrap;html=1;" vertex="1" parent="1">
          <mxGeometry x="1490" y="590" width="30" height="60" as="geometry" />
        </mxCell>
        <mxCell id="wkrOXO2FNry9XR1vR1SU-24" value="" style="endArrow=none;html=1;rounded=0;exitX=0.5;exitY=0;exitDx=0;exitDy=0;entryX=0.5;entryY=1;entryDx=0;entryDy=0;" edge="1" parent="1" source="wkrOXO2FNry9XR1vR1SU-23" target="JhBT1m_xZQuHyDkd4cjV-86">
          <mxGeometry width="50" height="50" relative="1" as="geometry">
            <mxPoint x="240" y="450" as="sourcePoint" />
            <mxPoint x="200" y="500" as="targetPoint" />
          </mxGeometry>
        </mxCell>
        <mxCell id="wkrOXO2FNry9XR1vR1SU-25" value="" style="rounded=0;whiteSpace=wrap;html=1;" vertex="1" parent="1">
          <mxGeometry x="1415" y="400" width="30" height="60" as="geometry" />
        </mxCell>
        <mxCell id="wkrOXO2FNry9XR1vR1SU-26" value="" style="endArrow=none;html=1;rounded=0;exitX=0.5;exitY=0;exitDx=0;exitDy=0;entryX=0.5;entryY=1;entryDx=0;entryDy=0;" edge="1" parent="1" source="wkrOXO2FNry9XR1vR1SU-25" target="JhBT1m_xZQuHyDkd4cjV-88">
          <mxGeometry width="50" height="50" relative="1" as="geometry">
            <mxPoint x="250" y="460" as="sourcePoint" />
            <mxPoint x="210" y="510" as="targetPoint" />
          </mxGeometry>
        </mxCell>
        <mxCell id="wkrOXO2FNry9XR1vR1SU-27" value="" style="rounded=0;whiteSpace=wrap;html=1;" vertex="1" parent="1">
          <mxGeometry x="1285" y="400" width="30" height="60" as="geometry" />
        </mxCell>
        <mxCell id="wkrOXO2FNry9XR1vR1SU-28" value="" style="endArrow=none;html=1;rounded=0;exitX=0.5;exitY=0;exitDx=0;exitDy=0;entryX=0.5;entryY=1;entryDx=0;entryDy=0;" edge="1" parent="1" source="wkrOXO2FNry9XR1vR1SU-27" target="JhBT1m_xZQuHyDkd4cjV-58">
          <mxGeometry width="50" height="50" relative="1" as="geometry">
            <mxPoint x="260" y="470" as="sourcePoint" />
            <mxPoint x="220" y="520" as="targetPoint" />
          </mxGeometry>
        </mxCell>
        <mxCell id="wkrOXO2FNry9XR1vR1SU-29" value="" style="rounded=0;whiteSpace=wrap;html=1;" vertex="1" parent="1">
          <mxGeometry x="1145" y="400" width="30" height="60" as="geometry" />
        </mxCell>
        <mxCell id="wkrOXO2FNry9XR1vR1SU-30" value="" style="endArrow=none;html=1;rounded=0;exitX=0.5;exitY=0;exitDx=0;exitDy=0;entryX=0.5;entryY=1;entryDx=0;entryDy=0;" edge="1" parent="1" source="wkrOXO2FNry9XR1vR1SU-29" target="JhBT1m_xZQuHyDkd4cjV-84">
          <mxGeometry width="50" height="50" relative="1" as="geometry">
            <mxPoint x="1200" y="330" as="sourcePoint" />
            <mxPoint x="1160" y="380" as="targetPoint" />
          </mxGeometry>
        </mxCell>
        <mxCell id="wkrOXO2FNry9XR1vR1SU-33" value="" style="rounded=0;whiteSpace=wrap;html=1;" vertex="1" parent="1">
          <mxGeometry x="1545" y="400" width="30" height="60" as="geometry" />
        </mxCell>
        <mxCell id="wkrOXO2FNry9XR1vR1SU-34" value="" style="endArrow=none;html=1;rounded=0;exitX=0.5;exitY=0;exitDx=0;exitDy=0;entryX=0.5;entryY=1;entryDx=0;entryDy=0;" edge="1" parent="1" source="wkrOXO2FNry9XR1vR1SU-33" target="JhBT1m_xZQuHyDkd4cjV-57">
          <mxGeometry width="50" height="50" relative="1" as="geometry">
            <mxPoint x="240" y="450" as="sourcePoint" />
            <mxPoint x="1360" y="600" as="targetPoint" />
          </mxGeometry>
        </mxCell>
        <mxCell id="wkrOXO2FNry9XR1vR1SU-35" value="" style="rounded=0;whiteSpace=wrap;html=1;" vertex="1" parent="1">
          <mxGeometry x="1920" y="590" width="30" height="60" as="geometry" />
        </mxCell>
        <mxCell id="wkrOXO2FNry9XR1vR1SU-36" value="" style="endArrow=none;html=1;rounded=0;exitX=0.5;exitY=0;exitDx=0;exitDy=0;entryX=0.5;entryY=1;entryDx=0;entryDy=0;" edge="1" parent="1" source="wkrOXO2FNry9XR1vR1SU-35" target="JhBT1m_xZQuHyDkd4cjV-64">
          <mxGeometry width="50" height="50" relative="1" as="geometry">
            <mxPoint x="350" y="434" as="sourcePoint" />
            <mxPoint x="1890" y="500" as="targetPoint" />
            <Array as="points" />
          </mxGeometry>
        </mxCell>
      </root>
    </mxGraphModel>
  </diagram>
</mxfile>
